<?xml version="1.0" encoding="utf-8"?>
<!-- Generator: Adobe Illustrator 23.0.3, SVG Export Plug-In . SVG Version: 6.00 Build 0)  -->
<svg version="1.1" id="Layer_1" xmlns="http://www.w3.org/2000/svg" xmlns:xlink="http://www.w3.org/1999/xlink" x="0px" y="0px"
	 viewBox="0 0 448 512" style="enable-background:new 0 0 448 512;" xml:space="preserve">
<style type="text/css">
	.st0{fill:#FFFFFF;}
</style>
<path class="st0" d="M436,124H12c-6.6,0-12-5.4-12-12V80c0-6.6,5.4-12,12-12h424c6.6,0,12,5.4,12,12v32C448,118.6,442.6,124,436,124
	z M436,284H12c-6.6,0-12-5.4-12-12v-32c0-6.6,5.4-12,12-12h424c6.6,0,12,5.4,12,12v32C448,278.6,442.6,284,436,284z M436,444H12
	c-6.6,0-12-5.4-12-12v-32c0-6.6,5.4-12,12-12h424c6.6,0,12,5.4,12,12v32C448,438.6,442.6,444,436,444z"/>
</svg>
