<?xml version="1.0" encoding="utf-8"?>
<!-- Generator: Adobe Illustrator 23.0.3, SVG Export Plug-In . SVG Version: 6.00 Build 0)  -->
<svg version="1.1" id="Layer_1" xmlns="http://www.w3.org/2000/svg" xmlns:xlink="http://www.w3.org/1999/xlink" x="0px" y="0px"
	 viewBox="0 0 348 68.92" style="enable-background:new 0 0 348 68.92;" xml:space="preserve">
<style type="text/css">
	.st0{clip-path:url(#SVGID_2_);}
	.st1{clip-path:url(#SVGID_4_);fill:#2477B8;}
</style>
<g id="ITRG_Logo_Light_Blue_1_">
	<g>
		<defs>
			<rect id="SVGID_1_" width="345.78" height="68.92"/>
		</defs>
		<clipPath id="SVGID_2_">
			<use xlink:href="#SVGID_1_"  style="overflow:visible;"/>
		</clipPath>
		<g class="st0">
			<defs>
				<rect id="SVGID_3_" y="0" width="345.78" height="68.92"/>
			</defs>
			<clipPath id="SVGID_4_">
				<use xlink:href="#SVGID_3_"  style="overflow:visible;"/>
			</clipPath>
			<path class="st1" d="M19.68,43.7H0v-2.19c0.55-0.04,1.35-0.1,2.4-0.19s1.79-0.2,2.22-0.37c0.68-0.27,1.17-0.63,1.48-1.09
				c0.31-0.46,0.46-1.11,0.46-1.93V6.28c0-0.72-0.11-1.32-0.34-1.8C5.99,4,5.46,3.59,4.62,3.26C4,3.02,3.23,2.79,2.29,2.57
				C1.36,2.36,0.59,2.23,0,2.19V0h19.68v2.19c-0.64,0.02-1.4,0.1-2.28,0.23c-0.88,0.14-1.65,0.3-2.31,0.51
				c-0.78,0.25-1.3,0.65-1.57,1.2c-0.26,0.56-0.4,1.17-0.4,1.85V37.6c0,0.68,0.15,1.28,0.45,1.8c0.3,0.53,0.8,0.94,1.52,1.25
				c0.43,0.17,1.14,0.34,2.11,0.54c0.97,0.2,1.8,0.31,2.48,0.32V43.7z"/>
			<path class="st1" d="M67.33,9.91c-0.47,0.02-1.19,0.15-2.15,0.4c-0.97,0.25-1.67,0.51-2.08,0.78c-0.6,0.42-1.01,1.22-1.22,2.41
				c-0.21,1.19-0.31,2.69-0.31,4.51v26.06h-2.18L37.81,14.95v18.36c0,2.06,0.13,3.64,0.39,4.74c0.26,1.11,0.66,1.89,1.19,2.36
				c0.38,0.37,1.18,0.71,2.38,1.03c1.2,0.32,2,0.49,2.38,0.5v1.78h-14.6v-1.78c0.45-0.03,1.21-0.2,2.28-0.49
				c1.07-0.29,1.74-0.56,2-0.79c0.58-0.47,0.99-1.18,1.21-2.15c0.22-0.96,0.33-2.6,0.33-4.93V16.06c0-0.77-0.13-1.54-0.4-2.31
				c-0.27-0.77-0.63-1.36-1.08-1.78c-0.6-0.55-1.41-1.03-2.44-1.42c-1.03-0.39-1.86-0.61-2.49-0.64V8.13h10.16l20.01,27.14V18.34
				c0-2.07-0.13-3.66-0.4-4.78c-0.27-1.11-0.65-1.85-1.15-2.22c-0.47-0.32-1.24-0.63-2.3-0.93c-1.06-0.3-1.87-0.47-2.42-0.5V8.13
				h14.47V9.91z"/>
			<path class="st1" d="M141.75,12.34c1.57,1.64,2.8,3.62,3.69,5.93c0.89,2.32,1.33,4.88,1.33,7.69c0,2.82-0.45,5.39-1.35,7.7
				c-0.9,2.31-2.16,4.27-3.76,5.89c-1.56,1.61-3.36,2.84-5.42,3.71c-2.06,0.87-4.25,1.31-6.57,1.31c-2.47,0-4.76-0.46-6.86-1.39
				c-2.1-0.93-3.9-2.22-5.4-3.88c-1.5-1.62-2.69-3.59-3.55-5.9c-0.86-2.32-1.29-4.8-1.29-7.44c0-2.89,0.45-5.47,1.36-7.74
				c0.9-2.26,2.14-4.23,3.74-5.88c1.57-1.64,3.4-2.89,5.48-3.76c2.08-0.87,4.26-1.3,6.53-1.3c2.36,0,4.58,0.44,6.67,1.33
				C138.42,9.49,140.22,10.74,141.75,12.34 M138.01,37.58c0.94-1.52,1.62-3.24,2.04-5.17c0.43-1.92,0.64-4.07,0.64-6.44
				c0-2.44-0.24-4.68-0.72-6.72c-0.47-2.04-1.17-3.78-2.09-5.22c-0.92-1.42-2.07-2.53-3.46-3.32c-1.39-0.79-2.97-1.19-4.76-1.19
				c-2,0-3.71,0.46-5.11,1.38c-1.41,0.92-2.55,2.15-3.44,3.69c-0.83,1.47-1.46,3.19-1.87,5.17c-0.41,1.98-0.61,4.04-0.61,6.22
				c0,2.41,0.22,4.58,0.65,6.52c0.43,1.94,1.12,3.66,2.06,5.17c0.9,1.47,2.04,2.62,3.41,3.45c1.37,0.82,3.01,1.24,4.91,1.24
				c1.79,0,3.4-0.42,4.84-1.25C135.94,40.25,137.11,39.08,138.01,37.58"/>
			<path class="st1" d="M259.65,33.23c-0.24,0.77-0.78,1.97-1.62,3.6c-0.85,1.63-1.65,2.85-2.42,3.65c-0.28,0.3-0.76,0.54-1.44,0.72
				c-0.68,0.17-1.34,0.3-1.97,0.36c-0.62,0.07-1.38,0.1-2.28,0.1h-2.18c-1.39,0-2.46-0.05-3.21-0.14c-0.75-0.09-1.35-0.3-1.78-0.61
				c-0.44-0.32-0.73-0.79-0.88-1.41c-0.15-0.62-0.23-1.46-0.23-2.53V26.28h4.02c1.08,0,1.96,0.1,2.62,0.3
				c0.66,0.2,1.25,0.62,1.77,1.28c0.32,0.4,0.62,1.05,0.91,1.94c0.29,0.9,0.47,1.74,0.54,2.55h1.88V18.43h-1.88
				c-0.08,0.72-0.26,1.48-0.51,2.29c-0.26,0.82-0.57,1.46-0.94,1.94c-0.46,0.57-0.98,0.98-1.57,1.22c-0.6,0.24-1.54,0.36-2.82,0.36
				h-4.02V10.16h0.49h0.2h6.91c0.7,0,1.46,0.02,2.29,0.06c0.82,0.03,3.82,0.37,5.78,3.21c0.5,0.77,1.86,3.15,1.86,3.15h1.97
				l-0.56-8.46h-12.58h-6.37h-10.38v1.78c0.45,0.03,1.06,0.13,1.82,0.3c0.76,0.17,1.37,0.36,1.82,0.58
				c0.59,0.27,0.97,0.61,1.15,1.04c0.18,0.42,0.28,0.91,0.28,1.46v25.59c0,0.62-0.1,1.13-0.31,1.53c-0.21,0.4-0.58,0.73-1.12,0.98
				c-0.25,0.12-0.79,0.23-1.63,0.34c-0.84,0.11-1.51,0.18-2.01,0.21v1.78h29.56l0.67-10.49H259.65z"/>
			<path class="st1" d="M286.13,44.55c-2.12,0-4.16-0.42-6.11-1.26c-1.95-0.83-3.68-2.04-5.18-3.61c-1.48-1.57-2.68-3.49-3.56-5.76
				c-0.89-2.27-1.33-4.82-1.33-7.67c0-2.84,0.43-5.42,1.31-7.74c0.87-2.32,2.07-4.31,3.61-5.99c1.52-1.66,3.32-2.94,5.4-3.84
				c2.07-0.9,4.29-1.35,6.65-1.35c1.76,0,3.35,0.22,4.77,0.65c1.42,0.44,2.77,1.05,4.06,1.83l1.03-1.71h2.01l0.23,12.7h-2.06
				c-0.27-1.24-0.67-2.58-1.21-4.03c-0.54-1.44-1.16-2.67-1.88-3.67c-0.8-1.14-1.76-2.03-2.86-2.67c-1.1-0.64-2.37-0.97-3.79-0.97
				c-1.62,0-3.13,0.36-4.53,1.08c-1.39,0.72-2.61,1.78-3.63,3.19c-0.97,1.35-1.73,3.08-2.28,5.17c-0.55,2.09-0.83,4.42-0.83,7
				c0,2.27,0.29,4.36,0.87,6.26c0.58,1.9,1.4,3.57,2.47,5.01c1.07,1.42,2.34,2.54,3.8,3.34c1.46,0.8,3.1,1.2,4.9,1.2
				c1.36,0,2.6-0.21,3.74-0.64c1.14-0.43,2.12-0.99,2.96-1.69c0.83-0.74,1.57-1.57,2.21-2.51c0.64-0.94,1.15-1.96,1.55-3.06
				l1.88,0.9c-1.44,3.53-3.35,6.05-5.72,7.56C292.23,43.79,289.4,44.55,286.13,44.55"/>
			<path class="st1" d="M345.78,43.72H331v-1.78c0.4-0.03,0.98-0.08,1.74-0.15c0.76-0.06,1.28-0.17,1.57-0.3
				c0.5-0.2,0.87-0.51,1.1-0.92c0.24-0.41,0.35-0.94,0.35-1.59V26.3h-16.74V38.7c0,0.59,0.1,1.08,0.29,1.48
				c0.19,0.4,0.57,0.75,1.14,1.06c0.28,0.15,0.79,0.3,1.52,0.45c0.73,0.15,1.3,0.24,1.72,0.25v1.78h-14.78v-1.78
				c0.4-0.03,0.98-0.08,1.74-0.15c0.76-0.06,1.28-0.17,1.57-0.3c0.5-0.2,0.87-0.51,1.11-0.92c0.23-0.41,0.35-0.94,0.35-1.59V13.28
				c0-0.53-0.11-1.02-0.33-1.46c-0.22-0.44-0.59-0.79-1.13-1.04c-0.45-0.22-1-0.41-1.64-0.58c-0.64-0.17-1.2-0.27-1.67-0.3V8.11
				h14.78v1.78c-0.47,0.02-1.04,0.09-1.72,0.22c-0.68,0.14-1.18,0.26-1.52,0.38c-0.57,0.2-0.95,0.53-1.14,1
				c-0.2,0.47-0.29,0.98-0.29,1.53v11.04h16.74V13.28c0-0.53-0.11-1.02-0.33-1.46c-0.22-0.44-0.59-0.79-1.13-1.04
				c-0.45-0.22-1-0.41-1.64-0.58c-0.65-0.17-1.2-0.27-1.67-0.3V8.11h14.78v1.78c-0.47,0.02-1.04,0.09-1.72,0.22
				c-0.68,0.14-1.18,0.26-1.52,0.38c-0.57,0.2-0.95,0.53-1.14,1c-0.19,0.47-0.29,0.98-0.29,1.53V38.7c0,0.59,0.09,1.08,0.29,1.48
				c0.19,0.4,0.57,0.75,1.14,1.06c0.29,0.15,0.79,0.3,1.52,0.45c0.73,0.15,1.3,0.24,1.72,0.25V43.72z"/>
			<path class="st1" d="M105.19,8.13h-6.43h-12.2H75.92v1.78c0.45,0.03,1.06,0.13,1.82,0.3c0.76,0.17,1.37,0.36,1.82,0.58
				c0.58,0.27,0.97,0.61,1.15,1.04c0.19,0.42,0.28,0.91,0.28,1.46v25.68c0,0.6-0.11,1.12-0.34,1.54c-0.23,0.43-0.59,0.75-1.09,0.97
				c-0.26,0.12-0.8,0.21-1.63,0.29c-0.84,0.08-1.5,0.13-2,0.16v1.78h15.42v-1.78c-0.44-0.01-1.07-0.11-1.91-0.27
				c-0.84-0.17-1.38-0.31-1.63-0.43c-0.55-0.27-0.93-0.62-1.15-1.06c-0.22-0.43-0.33-0.93-0.33-1.48V26.44h4.09
				c1.07,0,1.98,0.11,2.75,0.34c0.76,0.23,1.39,0.65,1.89,1.27c0.33,0.42,0.65,1.09,0.94,2.03c0.29,0.94,0.46,1.77,0.51,2.51h1.9
				V18.61h-1.9c-0.09,0.89-0.26,1.72-0.54,2.5s-0.58,1.35-0.92,1.72c-0.48,0.54-1.07,0.93-1.76,1.19c-0.69,0.26-1.65,0.39-2.88,0.39
				h-4.09V10.14h0.74h0.19h6.79c0.69,0,1.43,0.02,2.24,0.05c0.81,0.03,3.75,0.37,5.68,3.16c0.49,0.75,1.82,3.1,1.82,3.1h1.94
				L105.19,8.13z"/>
			<path class="st1" d="M223.26,0H208.8h-7.79h-14.46l-0.66,9.94h2.31c0,0,1.59-2.8,2.18-3.7c2.3-3.33,5.82-3.73,6.79-3.77
				c0.25-0.01,0.44-0.01,0.68-0.02c3.41,0,1.97-0.03,1.9-0.04c0.03,0,0.07,0,0.1,0h1.78v34.96c0,0.68-0.14,1.3-0.43,1.86
				c-0.29,0.57-0.79,1-1.51,1.31c-0.37,0.15-1.15,0.34-2.32,0.58c-1.18,0.25-2.11,0.38-2.76,0.4v2.19h8.67h3.27h8.67v-2.19
				c-0.66-0.02-1.58-0.16-2.76-0.4c-1.18-0.25-1.96-0.44-2.33-0.58c-0.72-0.31-1.22-0.74-1.51-1.31c-0.29-0.57-0.43-1.18-0.43-1.86
				V2.4h1.79c0.03,0,0.07,0,0.1,0c-0.07,0.01-1.51,0.04,1.9,0.04c0.24,0.01,0.44,0.01,0.68,0.02c0.96,0.04,4.48,0.44,6.79,3.77
				c0.59,0.9,2.18,3.7,2.18,3.7h2.31L223.26,0z"/>
			<path class="st1" d="M0.01,57.16h5.28c0.47,0,0.92,0.06,1.35,0.18c0.42,0.12,0.8,0.3,1.11,0.54c0.32,0.24,0.57,0.55,0.76,0.94
				c0.19,0.38,0.28,0.83,0.28,1.35c0,0.73-0.19,1.36-0.56,1.9c-0.38,0.54-0.94,0.88-1.68,1.03v0.03c0.38,0.06,0.69,0.15,0.93,0.3
				c0.25,0.15,0.45,0.33,0.61,0.56c0.15,0.23,0.27,0.49,0.34,0.78c0.07,0.3,0.12,0.62,0.14,0.96c0.01,0.19,0.02,0.43,0.03,0.71
				C8.6,66.72,8.62,67,8.66,67.28c0.03,0.28,0.08,0.55,0.15,0.81c0.07,0.25,0.16,0.45,0.28,0.59H7.88c-0.07-0.11-0.12-0.24-0.15-0.4
				c-0.04-0.16-0.07-0.32-0.09-0.48c-0.02-0.17-0.03-0.33-0.04-0.49c-0.01-0.16-0.01-0.3-0.02-0.42c-0.02-0.4-0.06-0.8-0.11-1.21
				c-0.05-0.41-0.15-0.77-0.31-1.09c-0.16-0.32-0.38-0.57-0.68-0.77c-0.3-0.19-0.7-0.28-1.22-0.26H1.11v5.11h-1.1V57.16z
				 M1.11,62.63h4.1c0.33,0,0.65-0.05,0.95-0.15c0.3-0.1,0.57-0.25,0.79-0.44c0.23-0.19,0.41-0.43,0.54-0.7
				c0.13-0.27,0.2-0.59,0.2-0.94c0-0.71-0.21-1.27-0.62-1.68C6.65,58.3,6.03,58.1,5.2,58.1h-4.1V62.63z"/>
			<polygon class="st1" points="26.41,57.16 34.36,57.16 34.36,58.1 27.51,58.1 27.51,62.26 33.93,62.26 33.93,63.2 27.51,63.2 
				27.51,67.74 34.44,67.74 34.44,68.68 26.41,68.68 			"/>
			<path class="st1" d="M52.14,64.89c-0.01,0.59,0.08,1.09,0.27,1.48c0.19,0.4,0.46,0.71,0.8,0.95c0.34,0.24,0.74,0.41,1.2,0.51
				s0.96,0.15,1.48,0.15c0.3,0,0.63-0.04,0.98-0.13c0.35-0.09,0.69-0.22,0.99-0.41c0.31-0.19,0.56-0.43,0.77-0.73
				c0.2-0.3,0.31-0.65,0.31-1.07c0-0.32-0.07-0.6-0.22-0.84s-0.33-0.44-0.56-0.6c-0.23-0.16-0.49-0.29-0.76-0.39
				c-0.28-0.1-0.55-0.19-0.82-0.25l-2.56-0.63c-0.34-0.09-0.67-0.19-0.98-0.32c-0.31-0.13-0.59-0.3-0.82-0.52
				c-0.24-0.22-0.43-0.48-0.57-0.79c-0.15-0.31-0.22-0.69-0.22-1.14c0-0.28,0.05-0.61,0.16-0.98c0.11-0.38,0.31-0.73,0.6-1.06
				c0.3-0.33,0.7-0.62,1.22-0.85c0.52-0.23,1.18-0.35,1.98-0.35c0.57,0,1.11,0.08,1.63,0.23c0.52,0.15,0.97,0.38,1.36,0.68
				c0.39,0.3,0.7,0.67,0.93,1.12c0.22,0.45,0.34,0.96,0.34,1.56h-1.1c-0.02-0.44-0.12-0.83-0.29-1.15c-0.17-0.33-0.4-0.6-0.69-0.82
				c-0.29-0.22-0.62-0.39-0.99-0.5s-0.76-0.17-1.17-0.17c-0.38,0-0.74,0.04-1.09,0.12c-0.35,0.08-0.65,0.21-0.92,0.39
				c-0.26,0.18-0.48,0.41-0.64,0.7c-0.16,0.29-0.24,0.65-0.24,1.08c0,0.27,0.05,0.5,0.14,0.7c0.09,0.2,0.22,0.37,0.38,0.5
				c0.16,0.13,0.35,0.25,0.56,0.34c0.21,0.09,0.43,0.16,0.67,0.22l2.81,0.69c0.41,0.11,0.79,0.24,1.15,0.4
				c0.36,0.16,0.68,0.35,0.95,0.58c0.27,0.23,0.49,0.51,0.65,0.85c0.16,0.33,0.23,0.74,0.23,1.21c0,0.13-0.01,0.3-0.04,0.52
				c-0.03,0.22-0.09,0.44-0.19,0.69c-0.1,0.24-0.25,0.49-0.44,0.73s-0.45,0.47-0.77,0.68c-0.33,0.21-0.73,0.37-1.22,0.49
				c-0.48,0.12-1.06,0.18-1.74,0.18c-0.68,0-1.31-0.08-1.89-0.23c-0.58-0.16-1.08-0.4-1.48-0.73c-0.41-0.33-0.72-0.75-0.94-1.26
				c-0.22-0.51-0.31-1.11-0.28-1.81H52.14z"/>
			<polygon class="st1" points="77.42,57.16 85.37,57.16 85.37,58.1 78.52,58.1 78.52,62.26 84.94,62.26 84.94,63.2 78.52,63.2 
				78.52,67.74 85.46,67.74 85.46,68.68 77.42,68.68 			"/>
			<path class="st1" d="M106,57.16h1.23l4.51,11.52h-1.18l-1.4-3.58h-5.24l-1.39,3.58h-1.18L106,57.16z M104.26,64.16h4.53
				l-2.22-5.9L104.26,64.16z"/>
			<path class="st1" d="M128.43,57.16h5.27c0.47,0,0.92,0.06,1.35,0.18c0.42,0.12,0.8,0.3,1.11,0.54c0.32,0.24,0.57,0.55,0.76,0.94
				c0.19,0.38,0.28,0.83,0.28,1.35c0,0.73-0.19,1.36-0.56,1.9c-0.38,0.54-0.94,0.88-1.68,1.03v0.03c0.38,0.06,0.69,0.15,0.93,0.3
				c0.25,0.15,0.45,0.33,0.61,0.56c0.15,0.23,0.27,0.49,0.34,0.78c0.07,0.3,0.12,0.62,0.14,0.96c0.01,0.19,0.02,0.43,0.03,0.71
				c0.01,0.28,0.03,0.56,0.07,0.85c0.03,0.28,0.08,0.55,0.15,0.81c0.07,0.25,0.16,0.45,0.28,0.59h-1.21
				c-0.06-0.11-0.12-0.24-0.15-0.4c-0.04-0.16-0.07-0.32-0.09-0.48c-0.02-0.17-0.04-0.33-0.04-0.49c-0.01-0.16-0.01-0.3-0.02-0.42
				c-0.02-0.4-0.06-0.8-0.1-1.21c-0.05-0.41-0.15-0.77-0.31-1.09c-0.16-0.32-0.38-0.57-0.68-0.77c-0.3-0.19-0.7-0.28-1.22-0.26
				h-4.16v5.11h-1.1V57.16z M129.53,62.63h4.1c0.33,0,0.65-0.05,0.95-0.15c0.3-0.1,0.57-0.25,0.79-0.44
				c0.23-0.19,0.41-0.43,0.54-0.7c0.13-0.27,0.2-0.59,0.2-0.94c0-0.71-0.21-1.27-0.62-1.68c-0.41-0.41-1.04-0.61-1.86-0.61h-4.1
				V62.63z"/>
			<path class="st1" d="M163.25,60.65c-0.1-0.44-0.26-0.84-0.48-1.19c-0.22-0.35-0.49-0.64-0.81-0.88
				c-0.32-0.24-0.67-0.42-1.05-0.54c-0.38-0.12-0.78-0.19-1.2-0.19c-0.76,0-1.42,0.14-1.97,0.44c-0.55,0.29-1,0.67-1.35,1.15
				c-0.35,0.48-0.61,1.02-0.77,1.63c-0.17,0.61-0.25,1.22-0.25,1.85c0,0.64,0.08,1.25,0.25,1.86c0.17,0.6,0.43,1.14,0.77,1.62
				c0.35,0.48,0.8,0.86,1.35,1.15c0.55,0.29,1.2,0.44,1.97,0.44c0.53,0,1.01-0.1,1.44-0.29c0.43-0.19,0.81-0.46,1.12-0.79
				c0.31-0.33,0.56-0.72,0.76-1.17c0.19-0.44,0.32-0.93,0.37-1.44h1.1c-0.07,0.71-0.24,1.35-0.5,1.92c-0.26,0.57-0.59,1.06-1,1.46
				c-0.41,0.4-0.89,0.71-1.44,0.93c-0.55,0.21-1.17,0.32-1.85,0.32c-0.9,0-1.7-0.16-2.38-0.49c-0.68-0.33-1.25-0.77-1.7-1.32
				c-0.45-0.55-0.79-1.19-1.02-1.92c-0.23-0.73-0.34-1.48-0.34-2.27c0-0.78,0.11-1.54,0.34-2.27c0.23-0.73,0.56-1.36,1.02-1.92
				c0.45-0.55,1.02-0.99,1.7-1.32c0.68-0.33,1.48-0.49,2.38-0.49c0.55,0,1.08,0.08,1.61,0.24c0.52,0.16,0.99,0.4,1.42,0.72
				c0.43,0.32,0.78,0.71,1.07,1.17c0.29,0.46,0.46,0.99,0.54,1.6H163.25z"/>
			<polygon class="st1" points="181.83,57.16 182.93,57.16 182.93,62.16 189.77,62.16 189.77,57.16 190.86,57.16 190.86,68.68 
				189.77,68.68 189.77,63.1 182.93,63.1 182.93,68.68 181.83,68.68 			"/>
			<path class="st1" d="M238.8,68.68h-0.79l-0.15-2.1h-0.03c-0.19,0.41-0.43,0.76-0.72,1.06c-0.28,0.3-0.6,0.54-0.94,0.73
				c-0.34,0.19-0.71,0.33-1.1,0.42c-0.39,0.09-0.8,0.14-1.22,0.14c-0.9,0-1.7-0.16-2.38-0.49c-0.68-0.33-1.25-0.77-1.7-1.32
				s-0.79-1.19-1.02-1.92c-0.23-0.73-0.34-1.48-0.34-2.27s0.11-1.54,0.34-2.27c0.23-0.73,0.57-1.37,1.02-1.92
				c0.45-0.55,1.02-0.99,1.7-1.32c0.68-0.33,1.48-0.49,2.38-0.49c0.6,0,1.17,0.08,1.71,0.24c0.54,0.16,1.02,0.4,1.44,0.73
				c0.43,0.32,0.78,0.72,1.07,1.2c0.28,0.48,0.48,1.03,0.59,1.65h-1.1c-0.03-0.33-0.14-0.67-0.33-1.01
				c-0.19-0.34-0.44-0.65-0.76-0.93c-0.32-0.28-0.7-0.51-1.14-0.69c-0.44-0.18-0.93-0.26-1.48-0.26c-0.76,0-1.42,0.14-1.97,0.43
				c-0.55,0.29-1,0.68-1.35,1.15c-0.35,0.48-0.61,1.02-0.77,1.63c-0.17,0.61-0.25,1.22-0.25,1.85c0,0.63,0.08,1.25,0.25,1.85
				c0.17,0.6,0.42,1.14,0.77,1.62c0.35,0.48,0.8,0.86,1.35,1.15c0.55,0.29,1.2,0.44,1.97,0.44c0.63,0,1.2-0.11,1.7-0.32
				c0.5-0.21,0.92-0.5,1.27-0.88c0.34-0.38,0.6-0.82,0.77-1.34c0.17-0.52,0.25-1.08,0.24-1.69h-3.92v-0.93h4.89V68.68z"/>
			<path class="st1" d="M256.55,57.16h5.27c0.47,0,0.92,0.06,1.35,0.18c0.43,0.12,0.8,0.3,1.11,0.54c0.32,0.24,0.57,0.55,0.76,0.94
				c0.19,0.38,0.28,0.83,0.28,1.35c0,0.73-0.19,1.36-0.56,1.9c-0.38,0.54-0.94,0.88-1.68,1.03v0.03c0.38,0.06,0.69,0.15,0.93,0.3
				c0.25,0.15,0.45,0.33,0.61,0.56c0.15,0.23,0.27,0.49,0.34,0.78c0.07,0.3,0.12,0.62,0.14,0.96c0.01,0.19,0.02,0.43,0.03,0.71
				c0.01,0.28,0.03,0.56,0.07,0.85c0.03,0.28,0.08,0.55,0.15,0.81c0.07,0.25,0.16,0.45,0.28,0.59h-1.21
				c-0.06-0.11-0.12-0.24-0.15-0.4c-0.04-0.16-0.07-0.32-0.09-0.48c-0.02-0.17-0.03-0.33-0.04-0.49c-0.01-0.16-0.01-0.3-0.02-0.42
				c-0.02-0.4-0.06-0.8-0.11-1.21c-0.05-0.41-0.15-0.77-0.31-1.09c-0.16-0.32-0.38-0.57-0.68-0.77c-0.3-0.19-0.7-0.28-1.22-0.26
				h-4.16v5.11h-1.1V57.16z M257.65,62.63h4.1c0.33,0,0.65-0.05,0.95-0.15c0.3-0.1,0.56-0.25,0.79-0.44
				c0.23-0.19,0.41-0.43,0.54-0.7c0.13-0.27,0.2-0.59,0.2-0.94c0-0.71-0.21-1.27-0.62-1.68c-0.41-0.41-1.04-0.61-1.86-0.61h-4.1
				V62.63z"/>
			<path class="st1" d="M282.34,62.92c0-0.78,0.11-1.54,0.34-2.27c0.23-0.73,0.57-1.37,1.02-1.92c0.45-0.55,1.02-0.99,1.7-1.32
				s1.48-0.49,2.38-0.49c0.9,0,1.69,0.16,2.37,0.49c0.68,0.33,1.24,0.77,1.69,1.32c0.45,0.55,0.79,1.19,1.02,1.92
				c0.23,0.73,0.34,1.48,0.34,2.27s-0.11,1.54-0.34,2.27c-0.23,0.72-0.57,1.36-1.02,1.92s-1.01,0.99-1.69,1.32
				c-0.68,0.33-1.47,0.49-2.37,0.49c-0.9,0-1.7-0.16-2.38-0.49c-0.68-0.33-1.25-0.77-1.7-1.32c-0.45-0.55-0.79-1.19-1.02-1.92
				C282.45,64.46,282.34,63.71,282.34,62.92 M283.44,62.92c0,0.64,0.08,1.25,0.25,1.85c0.17,0.6,0.42,1.14,0.77,1.62
				c0.35,0.48,0.8,0.86,1.35,1.15c0.55,0.29,1.2,0.43,1.97,0.43c0.75,0,1.4-0.14,1.95-0.43c0.55-0.29,1-0.67,1.35-1.15
				c0.35-0.48,0.61-1.02,0.77-1.62c0.17-0.6,0.25-1.22,0.25-1.85c0-0.62-0.08-1.24-0.25-1.85c-0.17-0.61-0.42-1.15-0.77-1.63
				c-0.35-0.48-0.8-0.86-1.35-1.15c-0.55-0.29-1.2-0.43-1.95-0.43c-0.77,0-1.42,0.14-1.97,0.43c-0.55,0.29-1,0.68-1.35,1.15
				c-0.35,0.48-0.61,1.02-0.77,1.63C283.52,61.68,283.44,62.3,283.44,62.92"/>
			<path class="st1" d="M310.44,57.16h1.1v7.13c0,0.67,0.08,1.23,0.23,1.7c0.15,0.47,0.37,0.85,0.66,1.14
				c0.29,0.3,0.65,0.51,1.07,0.65c0.42,0.13,0.89,0.2,1.42,0.2s1-0.07,1.43-0.2c0.42-0.13,0.78-0.35,1.07-0.65
				c0.29-0.29,0.51-0.68,0.66-1.14c0.15-0.47,0.23-1.03,0.23-1.7v-7.13h1.1v7.37c0,0.59-0.08,1.15-0.25,1.69
				c-0.17,0.53-0.43,1-0.79,1.4c-0.36,0.4-0.82,0.71-1.39,0.95c-0.56,0.24-1.25,0.36-2.06,0.36c-0.79,0-1.48-0.12-2.04-0.36
				c-0.57-0.24-1.03-0.55-1.39-0.95c-0.36-0.4-0.62-0.86-0.79-1.4c-0.17-0.53-0.25-1.09-0.25-1.69V57.16z"/>
			<path class="st1" d="M337.24,57.16h5.11c0.51,0,0.98,0.07,1.4,0.22c0.42,0.15,0.78,0.36,1.08,0.65c0.3,0.28,0.53,0.63,0.69,1.04
				c0.16,0.41,0.24,0.87,0.24,1.39c0,0.52-0.08,0.98-0.24,1.39c-0.16,0.41-0.39,0.76-0.69,1.04c-0.3,0.28-0.66,0.5-1.08,0.65
				c-0.42,0.15-0.89,0.22-1.4,0.22h-4.02v4.94h-1.1V57.16z M338.34,62.81h3.77c0.76,0,1.38-0.19,1.86-0.58
				c0.47-0.39,0.71-0.98,0.71-1.77c0-0.8-0.24-1.39-0.71-1.78s-1.09-0.58-1.86-0.58h-3.77V62.81z"/>
			<path class="st1" d="M156.51,28.28c0.89-2.05,2.06-3.76,3.52-5.13c1.46-1.37,3.19-2.05,5.19-2.05c2.09,0,4.58,0.91,7.46,2.74
				c2.89,1.83,5.08,2.74,6.58,2.74c1.48,0,2.71-0.39,3.71-1.17c0.99-0.78,1.99-2,3-3.65l2.09,1.41c-0.75,1.55-1.93,3.11-3.55,4.69
				c-1.62,1.57-3.59,2.36-5.9,2.36c-2.23,0-4.77-0.91-7.63-2.74c-2.86-1.83-5.05-2.74-6.56-2.74c-1.27,0-2.39,0.4-3.34,1.2
				c-0.96,0.8-1.8,1.97-2.53,3.5L156.51,28.28z"/>
		</g>
	</g>
</g>
</svg>
